<svg xmlns="http://www.w3.org/2000/svg" width="7.032" height="13.938" viewBox="0 0 7.032 13.938">
<style> .cls-one { fill: #fff; fill-rule: evenodd; } </style>
<path id="Shape-17-copy" data-name="Shape 17 copy" class="cls-one"
	d="M335.408,755.044l-1.682,0c-1.891,0-3.113,1.344-3.113,3.424v1.579h-1.692a0.274,0.274,0,0,0-.264.284v2.287a0.273,0.273,0,0,0,.264.283h1.692v5.772a0.275,0.275,0,0,0,.265.284h2.207a0.275,0.275,0,0,0,.265-0.284V762.9h1.978a0.273,0.273,0,0,0,.264-0.283v-2.287a0.3,0.3,0,0,0-.077-0.2,0.257,0.257,0,0,0-.187-0.083H333.35v-1.339a0.781,0.781,0,0,1,.924-0.969h1.134a0.275,0.275,0,0,0,.264-0.284v-2.123a0.275,0.275,0,0,0-.264-0.285h0Zm0,0"
	transform="translate(-328.656 -755.031)" />
</svg>