<svg xmlns="http://www.w3.org/2000/svg" width="13.156" height="13.938" viewBox="0 0 13.156 13.938">
    <style> .cls-one { fill: #fff; fill-rule: evenodd; } </style>
	<path id="Shape-19-copy" data-name="Shape 19 copy" class="cls-one"
		d="M433.785,762.985l-0.635-.508a1.006,1.006,0,0,1-.457-0.78,1.286,1.286,0,0,1,.494-0.89,3,3,0,0,0,.229-5.025h1.09l1.145-.741h-3.468a5.255,5.255,0,0,0-3.327,1.085,3.3,3.3,0,0,0-1.126,2.43,2.825,2.825,0,0,0,2.921,2.85c0.176,0,.369-0.018.563-0.036a1.684,1.684,0,0,0-.175.708,1.924,1.924,0,0,0,.528,1.233,7.413,7.413,0,0,0-3.363.835,2.627,2.627,0,0,0-1.355,2.213c0,1.344,1.231,2.595,3.785,2.595,3.027,0,4.629-1.723,4.629-3.428a3.167,3.167,0,0,0-1.478-2.541h0Zm-2.306-2.087c-1.515,0-2.2-2.014-2.2-3.229a2.14,2.14,0,0,1,.386-1.343,1.626,1.626,0,0,1,1.234-.6c1.459,0,2.217,2.033,2.217,3.339a1.869,1.869,0,0,1-.441,1.325,1.769,1.769,0,0,1-1.2.508h0Zm0.017,7.3c-1.883,0-3.1-.926-3.1-2.215a2.016,2.016,0,0,1,1.513-1.868,6.835,6.835,0,0,1,1.849-.292,2.637,2.637,0,0,1,.4.019c1.339,0.979,1.919,1.468,1.919,2.4,0,1.122-.9,1.959-2.588,1.959h0Zm0,0,6.734-7.324v-1.814h-0.871v1.814H435.6v0.906h1.761V763.6h0.871v-1.825H440V760.87h-1.77Zm0,0"
		transform="translate(-426.844 -755.031)" />
</svg>