<?xml version="1.0" encoding="UTF-8"?> <svg xmlns="http://www.w3.org/2000/svg" width="15" height="14" viewBox="0 0 15 14"><style> .cls-1 { fill: #ff0065; fill-rule: evenodd; } </style><path id="language" class="cls-1" d="M1740,132c-0.41,0-.81-0.008-1.22,0a0.181,0.181,0,0,1-.2-0.139c-0.21-.612-0.44-1.219-0.66-1.829a0.161,0.161,0,0,0-.18-0.139c-0.99.005-1.99,0.005-2.98,0a0.163,0.163,0,0,0-.18.136c-0.22.615-.45,1.227-0.67,1.843a0.163,0.163,0,0,1-.18.128c-0.37-.007-0.73,0-1.1,0-0.04,0-.07,0-0.13-0.009,0.1-.283.2-0.554,0.3-0.824,0.9-2.473,1.81-4.946,2.71-7.42a0.187,0.187,0,0,1,.21-0.153c0.35,0.009.71,0.008,1.07,0a0.169,0.169,0,0,1,.19.142q1.47,4.014,2.93,8.025c0.03,0.063.06,0.123,0.09,0.184V132Zm-4.85-3.524h2.2c-0.37-1-.73-1.99-1.09-2.975l-0.03.008C1735.87,126.494,1735.51,127.48,1735.15,128.476Zm-5.61-3.093a12.292,12.292,0,0,1-2.02-3.179c0.05,0,.09-0.01.13-0.01,0.35,0,.7.008,1.06-0.005a0.239,0.239,0,0,1,.25.161,11.28,11.28,0,0,0,1.4,2.085,0.907,0.907,0,0,1,.09.094,11.105,11.105,0,0,0,2.16-3.744H1725V119.4h4.76V118h1.37v1.391h4.77v1.4h-0.17c-0.56,0-1.12,0-1.67,0a0.174,0.174,0,0,0-.2.142,12.242,12.242,0,0,1-2,3.834c-0.16.208-.32,0.408-0.5,0.62,0.04,0.043.08,0.083,0.12,0.121,0.5,0.514,1.01,1.031,1.52,1.541a0.185,0.185,0,0,1,.05.22c-0.16.424-.32,0.852-0.47,1.278-0.71-.722-1.41-1.44-2.11-2.162q-1.725,1.77-3.4,3.492c-0.34-.34-0.65-0.664-0.98-1Q1727.8,127.152,1729.54,125.383Z" transform="translate(-1725 -118)"></path></svg> 