<?xml version="1.0" encoding="utf-8"?>
<!-- Generator: Adobe Illustrator 26.0.1, SVG Export Plug-In . SVG Version: 6.00 Build 0)  -->
<svg version="1.1" id="Layer_1" xmlns="http://www.w3.org/2000/svg" xmlns:xlink="http://www.w3.org/1999/xlink" x="0px" y="0px"
	 viewBox="0 0 14 14" style="enable-background:new 0 0 14 14;" xml:space="preserve">
<style type="text/css">
	.st0{fill:#A5ACB8;}
</style>
<g>
	<path class="st0" d="M13.26,8.94c-0.2-0.1-0.42-0.11-0.63-0.04c-0.21,0.07-0.37,0.22-0.47,0.42c-0.43,0.9-1.11,1.67-1.95,2.21
		c-0.87,0.56-1.87,0.85-2.9,0.85c-2.97,0-5.38-2.41-5.38-5.38c0-2.97,2.41-5.38,5.38-5.38c1.03,0,2.04,0.29,2.91,0.85
		c0.84,0.54,1.52,1.3,1.95,2.21c0.2,0.41,0.69,0.58,1.1,0.38c0.41-0.2,0.58-0.69,0.38-1.1c-0.57-1.18-1.45-2.18-2.55-2.88
		C9.96,0.36,8.65-0.03,7.3-0.03c-1.88,0-3.64,0.73-4.97,2.06C1.01,3.36,0.28,5.12,0.28,7c0,1.88,0.73,3.64,2.06,4.97
		c1.33,1.33,3.09,2.06,4.97,2.06c1.35,0,2.66-0.38,3.79-1.11c1.1-0.71,1.98-1.7,2.55-2.88C13.84,9.62,13.66,9.13,13.26,8.94z"/>
	<path class="st0" d="M7.32,9.13c0,0.22,0.08,0.43,0.24,0.58l0,0c0.15,0.15,0.36,0.24,0.58,0.24c0.22,0,0.43-0.09,0.58-0.24
		l1.69-1.69c0.27-0.27,0.43-0.64,0.43-1.03c0-0.39-0.15-0.75-0.43-1.03L8.72,4.29c-0.31-0.31-0.85-0.31-1.16,0
		C7.4,4.44,7.31,4.65,7.31,4.87c0,0.22,0.09,0.43,0.24,0.58l0.73,0.73H4.83c-0.45,0-0.82,0.37-0.82,0.82s0.37,0.82,0.82,0.82h3.46
		L7.56,8.56C7.4,8.71,7.32,8.92,7.32,9.13z"/>
</g>
</svg>
