<svg id="Layer_1" data-name="Layer 1" xmlns="http://www.w3.org/2000/svg" viewBox="0 0 14 14"><defs><style>.cls-1{fill:#ff0065;}</style></defs><path class="cls-1" d="M13.26,8.94a.82.82,0,0,0-1.1.38,5.48,5.48,0,0,1-1.95,2.21,5.38,5.38,0,1,1,0-9.06,5.42,5.42,0,0,1,1.95,2.21.84.84,0,0,0,1.1.38A.82.82,0,0,0,13.64,4,7.14,7.14,0,0,0,11.1,1.08,7.11,7.11,0,0,0,7.3,0a7,7,0,0,0-7,7A7,7,0,0,0,11.1,12.91,6.94,6.94,0,0,0,13.64,10,.81.81,0,0,0,13.26,8.94Z"/><path class="cls-1" d="M7.32,9.13a.81.81,0,0,0,.23.59h0a.87.87,0,0,0,.59.24.84.84,0,0,0,.58-.24L10.41,8a1.45,1.45,0,0,0,.42-1,1.43,1.43,0,0,0-.42-1L8.72,4.29a.85.85,0,0,0-1.17,0,.83.83,0,0,0-.24.58.84.84,0,0,0,.24.58l.74.73H4.83a.83.83,0,0,0,0,1.65H8.29l-.73.73A.78.78,0,0,0,7.32,9.13Z"/></svg>