<?xml version="1.0" encoding="UTF-8"?> <svg xmlns="http://www.w3.org/2000/svg" width="14" height="14" viewBox="0 0 14 14"><style> .cls-1 { fill: #ff0065; fill-rule: evenodd; } </style><path id="Cart" class="cls-1" d="M1729.14,150.333a2.6,2.6,0,0,1,1.69-.116c0.92,0.116,1.85.231,2.77,0.346l2.75,0.346c0.33,0.043.67,0.084,1,.128a1.841,1.841,0,0,1,1.65,1.713c0.04,0.822.04,1.65,0,2.471a1.868,1.868,0,0,1-1.75,1.663c-0.15.007-.3,0.006-0.45,0.006h-6.91a6.107,6.107,0,0,0,.16.91,0.559,0.559,0,0,0,.58.364c0.48,0,.96,0,1.45,0,2.08,0,4.17,0,6.25,0a0.645,0.645,0,0,1,.68.51,0.636,0.636,0,0,1-.65.763c-0.25.006-.5,0-0.78,0a1.276,1.276,0,0,1,.07,1.124,1.223,1.223,0,0,1-.5.591,1.28,1.28,0,0,1-1.47-.091,1.3,1.3,0,0,1-.32-1.613h-2.86a1.286,1.286,0,0,1,.05,1.146,1.241,1.241,0,0,1-.54.583,1.27,1.27,0,0,1-1.48-.169,1.284,1.284,0,0,1-.23-1.594c-0.04-.011-0.07-0.023-0.11-0.031a1.91,1.91,0,0,1-1.47-1.66c-0.19-1.573-.38-3.145-0.56-4.718-0.14-1.228-.29-2.456-0.43-3.684a0.672,0.672,0,0,0-.78-0.7c-0.41,0-.82,0-1.24,0a0.638,0.638,0,1,1,0-1.273c0.5,0,1.01-.021,1.51.014a1.9,1.9,0,0,1,1.77,1.76c0.03,0.365.08,0.73,0.12,1.095C1729.12,150.253,1729.13,150.285,1729.14,150.333Zm4.57,5.29h0.88c0.82,0,1.65,0,2.47,0a0.639,0.639,0,0,0,.69-0.689v-1.982a0.634,0.634,0,0,0-.58-0.658l-2.33-.3-4.76-.593a0.648,0.648,0,0,0-.61.235,0.806,0.806,0,0,0-.12.623c0.11,0.892.22,1.784,0.32,2.677a0.664,0.664,0,0,0,.75.683h3.29Z" transform="translate(-1725.03 -147.344)"></path></svg> 