<?xml version="1.0" encoding="UTF-8"?> <svg xmlns="http://www.w3.org/2000/svg" width="14" height="13.969" viewBox="0 0 14 13.969"><style> .cls-1 { fill: #ff0065; fill-rule: evenodd; } </style><path id="User" class="cls-1" d="M1739.98,99.584a6.835,6.835,0,0,0-2.26-4.576,9.205,9.205,0,0,0-.84-0.654l-0.21-.157a4.542,4.542,0,0,0-.75-6.127,4.533,4.533,0,0,0-5.83-.016,4.587,4.587,0,0,0-1.59,2.922,4.494,4.494,0,0,0,.83,3.234,6.96,6.96,0,0,0-3.33,5.95,0.826,0.826,0,0,0,.28.635,0.848,0.848,0,0,0,.54.206,0.889,0.889,0,0,0,.32-0.064,0.783,0.783,0,0,0,.51-0.679c0.01-.121.02-0.244,0.02-0.362,0.02-.2.03-0.387,0.06-0.571a5.244,5.244,0,0,1,2.91-3.926,4.5,4.5,0,0,0,4.73,0,5.2,5.2,0,0,1,2.82,3.53,6.426,6.426,0,0,1,.12.905c0.01,0.14.03,0.285,0.04,0.428a0.836,0.836,0,0,0,.85.743,0.814,0.814,0,0,0,.8-0.818C1740,99.987,1739.99,99.786,1739.98,99.584Zm-4.11-8.047A2.872,2.872,0,0,1,1733,94.4a2.871,2.871,0,0,1-2.87-2.878,2.873,2.873,0,0,1,2.87-2.866h0A2.872,2.872,0,0,1,1735.87,91.536Z" transform="translate(-1726 -87.031)"></path></svg> 