<svg xmlns="http://www.w3.org/2000/svg" width="16.656" height="13.938" viewBox="0 0 16.656 13.938">
    <style> .cls-one { fill: #fff; fill-rule: evenodd; } </style>
<path id="Shape-18-copy" data-name="Shape 18 copy" class="cls-one"
	d="M391.781,756.69a7.025,7.025,0,0,1-1.968.554,3.474,3.474,0,0,0,1.5-1.941,6.7,6.7,0,0,1-2.165.85,3.38,3.38,0,0,0-2.5-1.111,3.464,3.464,0,0,0-3.413,3.512,3.662,3.662,0,0,0,.08.8,9.58,9.58,0,0,1-7.039-3.672,3.608,3.608,0,0,0-.468,1.774,3.543,3.543,0,0,0,1.517,2.918,3.307,3.307,0,0,1-1.543-.432v0.038a3.505,3.505,0,0,0,2.736,3.45,3.366,3.366,0,0,1-.895.115,2.952,2.952,0,0,1-.647-0.06,3.463,3.463,0,0,0,3.191,2.446,6.743,6.743,0,0,1-4.234,1.5,6.28,6.28,0,0,1-.817-0.048,9.425,9.425,0,0,0,5.239,1.575c6.284,0,9.719-5.351,9.719-9.99,0-.154,0-0.3-0.012-0.453A6.945,6.945,0,0,0,391.781,756.69Z"
	transform="translate(-375.125 -755.031)" />
</svg>