<svg xmlns="http://www.w3.org/2000/svg" width="13.156" height="13.938" viewBox="0 0 13.156 13.938">
     <style> .cls-one { fill: #fff; fill-rule: evenodd; } </style>
	<path id="Shape-20-copy" data-name="Shape 20 copy" class="cls-one"
		d="M488.933,757.064a6.345,6.345,0,0,0-4.632-2.022,6.738,6.738,0,0,0-6.548,6.894,7.166,7.166,0,0,0,.874,3.446l-0.929,3.573L481.17,768a6.291,6.291,0,0,0,3.129.839h0a6.737,6.737,0,0,0,6.548-6.895,7.04,7.04,0,0,0-1.916-4.877h0ZM484.3,767.672h0a5.244,5.244,0,0,1-2.77-.8l-0.2-.125-2.06.569,0.55-2.115-0.129-.217a5.924,5.924,0,0,1-.832-3.048,5.6,5.6,0,0,1,5.444-5.731,5.276,5.276,0,0,1,3.848,1.681,5.855,5.855,0,0,1,1.593,4.054,5.6,5.6,0,0,1-5.443,5.731h0Zm2.985-4.292c-0.163-.086-0.967-0.5-1.118-0.561a0.249,0.249,0,0,0-.368.086c-0.109.172-.422,0.561-0.518,0.676a0.242,0.242,0,0,1-.354.043,4.437,4.437,0,0,1-1.316-.855,5.2,5.2,0,0,1-.91-1.193,0.271,0.271,0,0,1,.072-0.352,4.891,4.891,0,0,0,.409-0.589,0.334,0.334,0,0,0-.014-0.3c-0.041-.086-0.368-0.934-0.5-1.279s-0.268-.29-0.368-0.3-0.205-.006-0.314-0.006a0.586,0.586,0,0,0-.436.216,1.973,1.973,0,0,0-.573,1.436,3.443,3.443,0,0,0,.668,1.783,7.453,7.453,0,0,0,2.8,2.6,8.841,8.841,0,0,0,.933.363,2.15,2.15,0,0,0,1.03.068,1.69,1.69,0,0,0,1.105-.819,1.511,1.511,0,0,0,.1-0.819,0.819,0.819,0,0,0-.314-0.2h0Zm0,0"
		transform="translate(-477.688 -755.031)" />
</svg>